<svg width="56" height="20" viewBox="0 0 56 20" fill="none" xmlns="http://www.w3.org/2000/svg">
<path d="M15 6.66667C15 5.34058 14.4732 4.06881 13.5355 3.13113C12.5979 2.19345 11.3261 1.66667 10 1.66667C8.67392 1.66667 7.40215 2.19345 6.46447 3.13113C5.52678 4.06881 5 5.34058 5 6.66667C5 12.5 2.5 14.1667 2.5 14.1667H17.5C17.5 14.1667 15 12.5 15 6.66667Z" stroke="#525B75" stroke-width="1.33" stroke-linecap="round" stroke-linejoin="round"/>
<path d="M11.4417 17.5C11.2952 17.7526 11.0849 17.9622 10.8319 18.1079C10.5789 18.2537 10.292 18.3304 10 18.3304C9.70803 18.3304 9.42117 18.2537 9.16816 18.1079C8.91515 17.9622 8.70486 17.7526 8.55835 17.5" stroke="#525B75" stroke-width="1.33" stroke-linecap="round" stroke-linejoin="round"/>
<g clip-path="url(#clip0_28_1182)">
<path d="M40 6C41.1046 6 42 5.10457 42 4C42 2.89543 41.1046 2 40 2C38.8954 2 38 2.89543 38 4C38 5.10457 38.8954 6 40 6Z" fill="#525B75"/>
<path d="M40 12C41.1046 12 42 11.1046 42 10C42 8.89543 41.1046 8 40 8C38.8954 8 38 8.89543 38 10C38 11.1046 38.8954 12 40 12Z" fill="#525B75"/>
<path d="M40 18C41.1046 18 42 17.1046 42 16C42 14.8954 41.1046 14 40 14C38.8954 14 38 14.8954 38 16C38 17.1046 38.8954 18 40 18Z" fill="#525B75"/>
<path d="M46 12C47.1046 12 48 11.1046 48 10C48 8.89543 47.1046 8 46 8C44.8954 8 44 8.89543 44 10C44 11.1046 44.8954 12 46 12Z" fill="#525B75"/>
<path d="M46 18C47.1046 18 48 17.1046 48 16C48 14.8954 47.1046 14 46 14C44.8954 14 44 14.8954 44 16C44 17.1046 44.8954 18 46 18Z" fill="#525B75"/>
<path d="M52 12C53.1046 12 54 11.1046 54 10C54 8.89543 53.1046 8 52 8C50.8954 8 50 8.89543 50 10C50 11.1046 50.8954 12 52 12Z" fill="#525B75"/>
<path d="M52 18C53.1046 18 54 17.1046 54 16C54 14.8954 53.1046 14 52 14C50.8954 14 50 14.8954 50 16C50 17.1046 50.8954 18 52 18Z" fill="#525B75"/>
<path d="M46 6C47.1046 6 48 5.10457 48 4C48 2.89543 47.1046 2 46 2C44.8954 2 44 2.89543 44 4C44 5.10457 44.8954 6 46 6Z" fill="#525B75"/>
<path d="M52 6C53.1046 6 54 5.10457 54 4C54 2.89543 53.1046 2 52 2C50.8954 2 50 2.89543 50 4C50 5.10457 50.8954 6 52 6Z" fill="#525B75"/>
</g>
<defs>
<clipPath id="clip0_28_1182">
<rect width="16" height="16" fill="white" transform="translate(38 2)"/>
</clipPath>
</defs>
</svg>
